<svg width="22" height="21" viewBox="0 0 22 21" fill="none" xmlns="http://www.w3.org/2000/svg">
<path fill-rule="evenodd" clip-rule="evenodd" d="M1.32 0H20.68C21.409 0 22 0.590984 22 1.32V18.92C22 19.649 21.409 20.24 20.68 20.24H1.32C0.590984 20.24 0 19.649 0 18.92V1.32C0 0.590984 0.590984 0 1.32 0ZM20.6799 19.3599C20.9229 19.3599 21.1199 19.1629 21.1199 18.9199V1.31993C21.1199 1.07692 20.9229 0.879925 20.6799 0.879925H1.31993C1.07692 0.879925 0.879925 1.07692 0.879925 1.31993V18.9199C0.879925 19.1629 1.07692 19.3599 1.31993 19.3599H20.6799Z" fill="#666666"/>
<path d="M18.92 13.1997C18.677 13.1997 18.48 13.3967 18.48 13.6397V16.7197H15.4C15.157 16.7197 14.96 16.9167 14.96 17.1597C14.96 17.4027 15.157 17.5997 15.4 17.5997H18.92C19.163 17.5997 19.36 17.4027 19.36 17.1597V13.6397C19.36 13.3967 19.163 13.1997 18.92 13.1997Z" fill="#666666"/>
<path d="M6.59965 16.7197H3.51965V13.6397C3.51965 13.3967 3.32265 13.1997 3.07965 13.1997C2.83664 13.1997 2.63965 13.3967 2.63965 13.6397V17.1597C2.63965 17.4027 2.83664 17.5997 3.07965 17.5997H6.59965C6.84265 17.5997 7.03965 17.4027 7.03965 17.1597C7.03965 16.9167 6.84265 16.7197 6.59965 16.7197Z" fill="#666666"/>
<path d="M18.92 2.63965H15.4C15.157 2.63965 14.96 2.83664 14.96 3.07965C14.96 3.32265 15.157 3.51965 15.4 3.51965H18.48V6.59965C18.48 6.84265 18.677 7.03965 18.92 7.03965C19.163 7.03965 19.36 6.84265 19.36 6.59965V3.07965C19.36 2.83664 19.163 2.63965 18.92 2.63965Z" fill="#666666"/>
<path d="M6.59965 2.63965H3.07965C2.83664 2.63965 2.63965 2.83664 2.63965 3.07965V6.59965C2.63965 6.84265 2.83664 7.03965 3.07965 7.03965C3.32265 7.03965 3.51965 6.84265 3.51965 6.59965V3.51965H6.59965C6.84265 3.51965 7.03965 3.32265 7.03965 3.07965C7.03965 2.83664 6.84265 2.63965 6.59965 2.63965Z" fill="#666666"/>
</svg>
