<svg width="23" height="21" viewBox="0 0 23 21" fill="none" xmlns="http://www.w3.org/2000/svg">
<g clip-path="url(#clip0)">
<path d="M20.9621 4.20468C20.8348 4.03084 20.6314 3.92797 20.4153 3.92797H5.18851C5.15901 3.92797 5.12956 3.92975 5.10119 3.93356L4.47453 2.13501C4.40958 1.949 4.26656 1.80072 4.08275 1.72868L0.92454 0.493424C0.57647 0.357746 0.1837 0.527967 0.0470021 0.874095C-0.0894597 1.22041 0.0814598 1.6117 0.429341 1.7478L3.29773 2.8697L6.80868 12.9457C6.65372 12.9994 6.5224 13.1178 6.4626 13.2834L5.44746 16.091C5.38525 16.2631 5.41088 16.4544 5.51676 16.604C5.62249 16.7536 5.79445 16.8426 5.97807 16.8426H6.49937C6.17631 17.2005 5.97807 17.6719 5.97807 18.1902C5.97807 19.3049 6.88897 20.2116 8.00833 20.2116C9.12769 20.2116 10.0386 19.3049 10.0386 18.1902C10.0386 17.6719 9.84034 17.2005 9.51729 16.8426H13.9437C13.6205 17.2005 13.4222 17.6719 13.4222 18.1902C13.4222 19.3049 14.333 20.2116 15.4526 20.2116C16.5721 20.2116 17.4828 19.3049 17.4828 18.1902C17.4828 17.6719 17.2846 17.2005 16.9616 16.8426H17.5956C17.9071 16.8426 18.1596 16.5912 18.1596 16.2811C18.1596 15.971 17.9071 15.7196 17.5956 15.7196H6.7805L7.40919 13.981C7.49038 14.015 7.57808 14.0351 7.66989 14.0351H17.5955C17.8898 14.0351 18.1502 13.8458 18.2398 13.5671L21.0596 4.80755C21.1258 4.60246 21.0895 4.37852 20.9621 4.20468ZM8.00833 19.0886C7.51068 19.0886 7.10601 18.6857 7.10601 18.1902C7.10601 17.6948 7.51068 17.2918 8.00833 17.2918C8.50598 17.2918 8.91065 17.6948 8.91065 18.1902C8.91065 18.6857 8.50598 19.0886 8.00833 19.0886ZM15.4525 19.0886C14.9549 19.0886 14.5501 18.6857 14.5501 18.1902C14.5501 17.6948 14.9549 17.2918 15.4525 17.2918C15.9501 17.2918 16.3548 17.6948 16.3548 18.1902C16.3548 18.6857 15.9501 19.0886 15.4525 19.0886ZM17.102 12.6875L8.15149 12.6875L5.56863 5.27559H19.4879L17.102 12.6875Z" fill="#666666"/>
</g>
<ellipse cx="18.9824" cy="4" rx="4.01753" ry="4" fill="#3065EF"/>
<defs>
<clipPath id="clip0">
<rect width="21.092" height="21" fill="white"/>
</clipPath>
</defs>
</svg>
