<svg width="44" height="44" viewBox="0 0 44 44" fill="none" xmlns="http://www.w3.org/2000/svg">
<path fill-rule="evenodd" clip-rule="evenodd" d="M41.36 5.27979H2.64C1.18261 5.28134 0.00155207 6.4624 0 7.91979V37.8398C0.00155207 39.2972 1.18261 40.4782 2.64 40.4798H41.36C42.8174 40.4782 43.9984 39.2972 44 37.8398V7.91979C43.9984 6.4624 42.8174 5.28134 41.36 5.27979ZM13.2 33.4398H6.15999C5.67397 33.4398 5.27999 33.0458 5.27999 32.5598C5.27999 32.0738 5.67397 31.6798 6.15999 31.6798H13.2C13.686 31.6798 14.08 32.0738 14.08 32.5598C14.08 33.0458 13.686 33.4398 13.2 33.4398ZM1.76004 19.3598H42.24V14.0798H1.76004V19.3598Z" fill="#3065EF"/>
</svg>
