<svg width="15" height="15" viewBox="0 0 15 15" fill="none" xmlns="http://www.w3.org/2000/svg">
<path d="M5.51303 2.90501C5.51303 3.28301 5.51303 4.97021 5.51303 4.97021H4V7.49554H5.51303V14.9999H8.62112V7.49575H10.7068C10.7068 7.49575 10.9021 6.28487 10.9968 4.96089C10.7253 4.96089 8.63287 4.96089 8.63287 4.96089C8.63287 4.96089 8.63287 3.49174 8.63287 3.23422C8.63287 2.97615 8.97175 2.62901 9.30668 2.62901C9.64099 2.62901 10.3466 2.62901 11.0001 2.62901C11.0001 2.28519 11.0001 1.09719 11.0001 9.02082e-09C10.1277 9.02082e-09 9.13513 9.02082e-09 8.69763 9.02082e-09C5.4362 -0.000174363 5.51303 2.52767 5.51303 2.90501Z" fill="#475993"/>
</svg>
