<svg width="16" height="16" viewBox="0 0 16 16" fill="none" xmlns="http://www.w3.org/2000/svg">
<path fill-rule="evenodd" clip-rule="evenodd" d="M1.91992 7.67989V0.639893H15.3599V7.67989C15.3599 10.6399 11.8799 15.3599 8.63992 15.3599C5.39992 15.3599 1.91992 10.6399 1.91992 7.67989ZM3.83989 7.99989C3.83989 10.1974 6.36834 13.4399 8.63989 13.4399C8.81662 13.4399 8.95989 13.2966 8.95989 13.1199C8.95989 12.9432 8.81662 12.7999 8.63989 12.7999C6.75144 12.7999 4.47989 9.8518 4.47989 7.99989V3.1999H7.35989C7.53662 3.1999 7.67989 3.05663 7.67989 2.8799C7.67989 2.70316 7.53662 2.5599 7.35989 2.5599H4.15989C3.98316 2.5599 3.83989 2.70316 3.83989 2.8799V7.99989Z" fill="#71C046"/>
</svg>
