<svg width="15" height="15" viewBox="0 0 15 15" fill="none" xmlns="http://www.w3.org/2000/svg">
<path d="M9.15209 5.84661C8.97441 5.66787 8.77739 5.50943 8.5647 5.37419C8.00137 5.01347 7.34647 4.82178 6.67753 4.82178C5.74908 4.82006 4.85835 5.18895 4.20298 5.84661L1.02355 9.02853C0.36929 9.68405 0.00156312 10.5722 0.000977287 11.4983C-0.000252961 13.431 1.56544 14.9987 3.4981 14.9999C4.42512 15.0032 5.31503 14.636 5.97017 13.9801L8.5947 11.3556C8.64239 11.3083 8.66901 11.2438 8.66863 11.1767C8.66784 11.0386 8.55527 10.9274 8.41722 10.9282H8.31725C7.76891 10.9301 7.22546 10.8248 6.71755 10.6182C6.62396 10.5797 6.5164 10.6015 6.4451 10.6732L4.55793 12.5629C3.97192 13.1489 3.02182 13.1489 2.43581 12.5629C1.84981 11.9769 1.84981 11.0268 2.43581 10.4408L5.62775 7.25135C6.21329 6.66654 7.16184 6.66654 7.74738 7.25135C8.142 7.62274 8.75753 7.62274 9.15212 7.25135C9.32189 7.08143 9.42482 6.85606 9.44208 6.61645C9.46032 6.33013 9.35473 6.04972 9.15209 5.84661Z" fill="#3065EF"/>
<path d="M13.9739 1.02499C12.6072 -0.341665 10.3914 -0.341665 9.02475 1.02499L6.40271 3.64451C6.33071 3.71686 6.30994 3.82568 6.35022 3.91947C6.39003 4.01353 6.48306 4.0739 6.58517 4.07194H6.67764C7.22534 4.07094 7.76791 4.17706 8.27486 4.38439C8.36844 4.42291 8.476 4.40118 8.5473 4.32941L10.4295 2.44974C11.0155 1.86373 11.9656 1.86373 12.5516 2.44974C13.1376 3.03575 13.1376 3.98585 12.5516 4.57186L10.207 6.91393L10.187 6.93642L9.36714 7.75129C8.7816 8.33609 7.83305 8.33609 7.24751 7.75129C6.85289 7.3799 6.23736 7.3799 5.84277 7.75129C5.67191 7.9225 5.5689 8.14983 5.55281 8.39116C5.53454 8.67749 5.64013 8.9579 5.84277 9.16103C6.13209 9.45158 6.47058 9.68852 6.84258 9.8609C6.89507 9.88588 6.94756 9.90589 7.00006 9.92839C7.05255 9.95088 7.10753 9.96837 7.16002 9.98837C7.21251 10.0084 7.26749 10.0259 7.31998 10.0409L7.46746 10.0808C7.56743 10.1058 7.66744 10.1258 7.7699 10.1433C7.89333 10.1617 8.01765 10.1734 8.14234 10.1783H8.3173H8.3323L8.48227 10.1608C8.53725 10.1584 8.59475 10.1458 8.65975 10.1458H8.74472L8.91719 10.1209L8.99719 10.1059L9.14215 10.0759H9.16966C9.78364 9.92165 10.3443 9.60375 10.7919 9.15602L13.9738 5.97411C15.3405 4.60745 15.3405 2.39165 13.9739 1.02499Z" fill="#3065EF"/>
</svg>
