<svg width="13" height="13" viewBox="0 0 13 13" fill="none" xmlns="http://www.w3.org/2000/svg">
<path fill-rule="evenodd" clip-rule="evenodd" d="M2.08008 4.42C2.08008 1.9789 4.05898 0 6.50008 0C7.67233 0 8.79658 0.465677 9.62549 1.29459C10.4544 2.1235 10.9201 3.24774 10.9201 4.42C10.9201 7.02359 8.33074 11.1313 7.11581 12.698C6.96863 12.8886 6.74133 13.0002 6.5005 13C6.25966 12.9998 6.03254 12.8879 5.88565 12.697C4.67145 11.1262 2.08008 7.00799 2.08008 4.42ZM4.68014 3.90001C4.68014 4.90517 5.49498 5.72001 6.50013 5.72001C7.50529 5.72001 8.32013 4.90517 8.32013 3.90001C8.32013 2.89485 7.50529 2.08001 6.50013 2.08001C5.49498 2.08001 4.68014 2.89485 4.68014 3.90001Z" fill="#77788F"/>
</svg>
