<svg width="44" height="44" viewBox="0 0 44 44" fill="none" xmlns="http://www.w3.org/2000/svg">
<path fill-rule="evenodd" clip-rule="evenodd" d="M5.28003 21.1198V1.75977H42.24V21.1198C42.24 29.2598 32.67 42.2398 23.76 42.2398C14.85 42.2398 5.28003 29.2598 5.28003 21.1198ZM10.56 21.9998C10.56 28.0429 17.5132 36.9598 23.76 36.9598C24.246 36.9598 24.64 36.5658 24.64 36.0798C24.64 35.5938 24.246 35.1998 23.76 35.1998C18.5668 35.1998 12.32 27.0925 12.32 21.9998V8.79979H20.24C20.726 8.79979 21.12 8.4058 21.12 7.91979C21.12 7.43378 20.726 7.03979 20.24 7.03979H11.44C10.954 7.03979 10.56 7.43378 10.56 7.91979V21.9998Z" fill="#3065EF"/>
</svg>
