<svg width="44" height="44" viewBox="0 0 44 44" fill="none" xmlns="http://www.w3.org/2000/svg">
<path fill-rule="evenodd" clip-rule="evenodd" d="M39.512 13.376L43.648 18.8906C43.8765 19.1953 44 19.5658 44 19.9466V29.92C44 31.8641 42.424 33.44 40.48 33.44H36.96C36.96 36.3561 34.5961 38.72 31.68 38.72C28.7639 38.72 26.4 36.3561 26.4 33.44H15.84C15.84 36.3561 13.4761 38.72 10.56 38.72C7.64394 38.72 5.28 36.3561 5.28 33.44H2.64C1.18197 33.44 0 32.2581 0 30.8V9.68004C0 8.22201 1.18197 7.04004 2.64 7.04004H27.28C28.738 7.04004 29.92 8.22201 29.92 9.68004V12.32H37.4C38.231 12.32 39.0134 12.7113 39.512 13.376ZM7.04 33.44C7.04 35.3841 8.61596 36.96 10.56 36.96C12.5032 36.958 14.078 35.3832 14.08 33.44C14.08 31.496 12.504 29.92 10.56 29.92C8.61596 29.92 7.04 31.496 7.04 33.44ZM31.68 36.96C29.736 36.96 28.16 35.3841 28.16 33.44C28.16 31.496 29.736 29.92 31.68 29.92C33.624 29.92 35.2 31.496 35.2 33.44C35.198 35.3832 33.6232 36.958 31.68 36.96ZM29.92 21.12H42.24V19.9466L38.104 14.432C37.9371 14.2113 37.6767 14.0811 37.4 14.08H29.92V21.12Z" fill="#3065EF"/>
</svg>
