<svg width="17" height="17" viewBox="0 0 17 17" fill="none" xmlns="http://www.w3.org/2000/svg">
<g clip-path="url(#clip0)">
<path d="M17 3.22926C16.3743 3.50651 15.7029 3.69454 14.9975 3.77849C15.7178 3.34718 16.2691 2.66307 16.5304 1.8504C15.8548 2.24982 15.1091 2.53985 14.3144 2.69707C13.6781 2.01826 12.7731 1.59546 11.7692 1.59546C9.84322 1.59546 8.28164 3.15704 8.28164 5.08193C8.28164 5.35493 8.31245 5.62157 8.37195 5.87654C5.474 5.73099 2.90431 4.34257 1.18444 2.23282C0.883806 2.74699 0.712778 3.3461 0.712778 3.98563C0.712778 5.1956 1.32892 6.26321 2.26375 6.88782C1.69222 6.86871 1.15469 6.71149 0.684111 6.45015V6.49371C0.684111 8.18276 1.88664 9.59243 3.48114 9.91326C3.189 9.99187 2.88094 10.0354 2.56225 10.0354C2.33706 10.0354 2.11928 10.0131 1.90575 9.97062C2.34978 11.3569 3.63731 12.365 5.16278 12.3927C3.96981 13.3275 2.46558 13.8831 0.831778 13.8831C0.550278 13.8831 0.273 13.8661 0 13.8353C1.54353 14.8264 3.376 15.4043 5.3455 15.4043C11.7607 15.4043 15.2674 10.0907 15.2674 5.48243L15.2557 5.03096C15.9409 4.54226 16.5336 3.92826 17 3.22926Z" fill="#1EA1F3"/>
</g>
<defs>
<clipPath id="clip0">
<rect width="17" height="17" fill="white"/>
</clipPath>
</defs>
</svg>
