<svg width="20" height="22" viewBox="0 0 20 22" fill="none" xmlns="http://www.w3.org/2000/svg">
<path d="M9.79892 10.5975C11.2548 10.5975 12.5153 10.0753 13.5456 9.04507C14.5755 8.015 15.0978 6.75464 15.0978 5.29857C15.0978 3.84301 14.5757 2.58248 13.5454 1.55208C12.5152 0.52217 11.2547 0 9.79892 0C8.34285 0 7.08249 0.52217 6.05241 1.55224C5.02234 2.58232 4.5 3.84284 4.5 5.29857C4.5 6.75464 5.02234 8.01517 6.05241 9.04524C7.08282 10.0751 8.34335 10.5975 9.79892 10.5975ZM6.96416 2.46382C7.75455 1.67343 8.68173 1.28923 9.79892 1.28923C10.9159 1.28923 11.8433 1.67343 12.6338 2.46382C13.4242 3.25437 13.8086 4.18172 13.8086 5.29857C13.8086 6.41576 13.4242 7.34294 12.6338 8.1335C11.8433 8.92406 10.9159 9.30826 9.79892 9.30826C8.68207 9.30826 7.75488 8.92389 6.96416 8.1335C6.1736 7.34311 5.78923 6.41576 5.78923 5.29857C5.78923 4.18172 6.1736 3.25437 6.96416 2.46382Z" fill="#666666"/>
<path d="M19.1149 16.917C19.0852 16.4883 19.0251 16.0207 18.9367 15.5269C18.8474 15.0294 18.7324 14.5591 18.5948 14.1292C18.4524 13.6849 18.2592 13.2462 18.0201 12.8257C17.7721 12.3893 17.4808 12.0093 17.1538 11.6966C16.8119 11.3695 16.3933 11.1065 15.9092 10.9146C15.4268 10.7238 14.8922 10.6271 14.3204 10.6271C14.0958 10.6271 13.8786 10.7193 13.4592 10.9924C13.201 11.1607 12.899 11.3554 12.562 11.5708C12.2738 11.7544 11.8834 11.9264 11.4012 12.0822C10.9307 12.2344 10.453 12.3116 9.98137 12.3116C9.51006 12.3116 9.03236 12.2344 8.56155 12.0822C8.07983 11.9266 7.68925 11.7545 7.40157 11.5709C7.06772 11.3576 6.76559 11.1629 6.50359 10.9922C6.08447 10.7191 5.86728 10.627 5.6427 10.627C5.07068 10.627 4.53625 10.7238 4.05403 10.9148C3.5703 11.1063 3.15152 11.3693 2.80928 11.6968C2.48232 12.0097 2.19093 12.3895 1.94319 12.8257C1.70435 13.2462 1.51099 13.6848 1.36865 14.1294C1.23119 14.5593 1.11621 15.0294 1.02692 15.5269C0.938293 16.02 0.878372 16.4878 0.848663 16.9175C0.819458 17.3376 0.804688 17.7749 0.804688 18.2166C0.804688 19.365 1.16975 20.2947 1.88965 20.9804C2.60065 21.657 3.54126 22.0001 4.68547 22.0001H15.2786C16.4225 22.0001 17.3631 21.657 18.0743 20.9804C18.7943 20.2952 19.1594 19.3652 19.1594 18.2165C19.1592 17.7732 19.1443 17.3359 19.1149 16.917ZM17.1853 20.0463C16.7155 20.4935 16.0918 20.7108 15.2784 20.7108H4.68547C3.87192 20.7108 3.2482 20.4935 2.77856 20.0465C2.31783 19.6079 2.09392 19.0092 2.09392 18.2166C2.09392 17.8044 2.10751 17.3974 2.1347 17.0066C2.16122 16.6233 2.21544 16.2021 2.29584 15.7547C2.37523 15.3127 2.47627 14.898 2.59645 14.5225C2.71176 14.1625 2.86903 13.806 3.06407 13.4625C3.25021 13.1352 3.46439 12.8544 3.70071 12.6282C3.92177 12.4165 4.20039 12.2433 4.5287 12.1134C4.83234 11.9932 5.17357 11.9274 5.54401 11.9175C5.58916 11.9415 5.66956 11.9873 5.7998 12.0723C6.06483 12.245 6.37032 12.442 6.70802 12.6577C7.0887 12.9004 7.57915 13.1196 8.1651 13.3088C8.76414 13.5025 9.37511 13.6009 9.98154 13.6009C10.588 13.6009 11.1991 13.5025 11.7978 13.309C12.3843 13.1195 12.8745 12.9004 13.2557 12.6574C13.6013 12.4365 13.8982 12.2452 14.1633 12.0723C14.2935 11.9875 14.3739 11.9415 14.4191 11.9175C14.7897 11.9274 15.1309 11.9932 15.4347 12.1134C15.7628 12.2433 16.0415 12.4167 16.2625 12.6282C16.4989 12.8543 16.713 13.1351 16.8992 13.4627C17.0944 13.806 17.2518 14.1626 17.367 14.5223C17.4873 14.8983 17.5885 15.3129 17.6677 15.7545C17.748 16.2028 17.8024 16.6241 17.8289 17.0068V17.0071C17.8562 17.3964 17.87 17.8032 17.8702 18.2166C17.87 19.0094 17.6461 19.6079 17.1853 20.0463Z" fill="#666666"/>
</svg>
